<svg width="44" height="44" viewBox="0 0 44 44" fill="none" xmlns="http://www.w3.org/2000/svg">
<path d="M18.3333 16.5C18.3333 15.4875 17.5125 14.6667 16.5 14.6667C15.4875 14.6667 14.6667 15.4875 14.6667 16.5V18.3333C14.6667 19.3459 15.4875 20.1667 16.5 20.1667C17.5125 20.1667 18.3333 19.3459 18.3333 18.3333V16.5Z" fill="black"/>
<path d="M29.3333 16.5C29.3333 15.4875 28.5126 14.6667 27.5 14.6667C26.4875 14.6667 25.6667 15.4875 25.6667 16.5V18.3333C25.6667 19.3459 26.4875 20.1667 27.5 20.1667C28.5126 20.1667 29.3333 19.3459 29.3333 18.3333V16.5Z" fill="black"/>
<path fill-rule="evenodd" clip-rule="evenodd" d="M3.66667 22C3.66667 11.8748 11.8748 3.66667 22 3.66667C32.1251 3.66667 40.3333 11.8748 40.3333 22C40.3333 32.1251 32.1251 40.3333 22 40.3333C11.8748 40.3333 3.66667 32.1251 3.66667 22ZM22 7.33334C13.8998 7.33334 7.33334 13.8998 7.33334 22C7.33334 30.1002 13.8998 36.6667 22 36.6667C30.1002 36.6667 36.6667 30.1002 36.6667 22C36.6667 13.8998 30.1002 7.33334 22 7.33334Z" fill="black"/>
<rect x="15" y="25" width="14" height="3" rx="1.5" fill="black"/>
</svg>
