<svg width="44" height="44" viewBox="0 0 44 44" fill="none" xmlns="http://www.w3.org/2000/svg">
<path d="M16.4608 28.9892C15.6713 28.6737 15.2748 27.7651 15.7478 27.0587C16.2873 26.253 16.9842 25.5578 17.802 25.0181C19.0509 24.194 20.522 23.7716 22.0178 23.8077C23.5136 23.8436 24.9625 24.3364 26.1703 25.2195C26.9613 25.7981 27.6239 26.526 28.1241 27.3568C28.5625 28.0852 28.1227 28.9737 27.319 29.2507C26.5152 29.5277 25.6561 29.0719 25.1125 28.4183C24.8906 28.1516 24.636 27.9116 24.3529 27.7046C23.6522 27.1922 22.8114 26.9062 21.9437 26.8853C21.0758 26.8644 20.2224 27.1095 19.4979 27.5877C19.2051 27.7809 18.9391 28.0082 18.7048 28.264C18.1304 28.8908 17.2502 29.3046 16.4608 28.9892Z" fill="black"/>
<path d="M18.3333 16.5C18.3333 15.4875 17.5125 14.6667 16.5 14.6667C15.4875 14.6667 14.6667 15.4875 14.6667 16.5V18.3333C14.6667 19.3459 15.4875 20.1667 16.5 20.1667C17.5125 20.1667 18.3333 19.3459 18.3333 18.3333V16.5Z" fill="black"/>
<path d="M29.3333 16.5C29.3333 15.4875 28.5126 14.6667 27.5 14.6667C26.4875 14.6667 25.6667 15.4875 25.6667 16.5V18.3333C25.6667 19.3459 26.4875 20.1667 27.5 20.1667C28.5126 20.1667 29.3333 19.3459 29.3333 18.3333V16.5Z" fill="black"/>
<path fill-rule="evenodd" clip-rule="evenodd" d="M3.66667 22C3.66667 11.8748 11.8748 3.66667 22 3.66667C32.1251 3.66667 40.3333 11.8748 40.3333 22C40.3333 32.1251 32.1251 40.3333 22 40.3333C11.8748 40.3333 3.66667 32.1251 3.66667 22ZM22 7.33334C13.8998 7.33334 7.33334 13.8998 7.33334 22C7.33334 30.1002 13.8998 36.6667 22 36.6667C30.1002 36.6667 36.6667 30.1002 36.6667 22C36.6667 13.8998 30.1002 7.33334 22 7.33334Z" fill="black"/>
</svg>
